<svg width="110" height="29" viewBox="0 0 110 29" fill="none" xmlns="http://www.w3.org/2000/svg">
<path d="M17.9049 13.2893C17.8762 10.1469 20.5244 8.61812 20.6455 8.54695C19.1457 6.39902 16.821 6.10555 16.0041 6.08215C14.0517 5.88032 12.1578 7.22972 11.1633 7.22972C10.1488 7.22972 8.61726 6.10165 6.96658 6.1348C4.84243 6.16697 2.85526 7.375 1.76539 9.2509C-0.483825 13.0758 1.19366 18.6967 3.34858 21.7884C4.42653 23.3026 5.68613 24.9932 7.33483 24.9338C8.94779 24.8684 9.55029 23.9237 11.4968 23.9237C13.4254 23.9237 13.9912 24.9338 15.6726 24.8957C17.4037 24.8684 18.4936 23.3747 19.5338 21.8469C20.7795 20.1114 21.2798 18.4022 21.2996 18.3145C21.2589 18.3008 17.9377 17.0558 17.9049 13.2893Z" fill="white"/>
<path d="M14.7286 4.0483C15.5962 2.98262 16.1897 1.5328 16.025 0.0615234C14.7693 0.116123 13.1991 0.914649 12.2948 1.95692C11.4948 2.87537 10.7801 4.38077 10.9647 5.79647C12.3752 5.89982 13.8234 5.0974 14.7286 4.0483Z" fill="white"/>
<path d="M41.2455 24.7161H38.9913L37.7566 20.9049H33.4646L32.2884 24.7161H30.0938L34.346 11.7408H36.9724L41.2455 24.7161ZM37.3843 19.3059L36.2677 15.9177C36.1496 15.5716 35.9282 14.7565 35.6016 13.4734H35.5619C35.4319 14.0253 35.2225 14.8404 34.9346 15.9177L33.8378 19.3059H37.3843Z" fill="white"/>
<path d="M52.1804 19.9233C52.1804 21.5145 51.7426 22.7722 50.8672 23.6956C50.083 24.5175 49.1093 24.928 47.947 24.928C46.6923 24.928 45.791 24.4853 45.2421 23.6H45.2024V28.5286H43.0862V18.4403C43.0862 17.44 43.0594 16.4133 43.0078 15.3603H44.8689L44.987 16.8433H45.0267C45.7325 15.7259 46.8035 15.1682 48.2408 15.1682C49.3644 15.1682 50.3024 15.604 51.0528 16.4767C51.8052 17.3503 52.1804 18.4988 52.1804 19.9233ZM50.0245 19.9993C50.0245 19.0887 49.816 18.3379 49.3971 17.7471C48.9395 17.1309 48.3251 16.8228 47.5549 16.8228C47.0328 16.8228 46.5583 16.9944 46.1345 17.3327C45.7096 17.674 45.4317 18.1195 45.3017 18.6714C45.2362 18.9288 45.2034 19.1394 45.2034 19.3051V20.8651C45.2034 21.5457 45.4158 22.12 45.8407 22.5889C46.2655 23.0579 46.8174 23.2919 47.4963 23.2919C48.2934 23.2919 48.9137 22.9897 49.3574 22.3871C49.8021 21.7836 50.0245 20.988 50.0245 19.9993Z" fill="white"/>
<path d="M63.1364 19.9233C63.1364 21.5145 62.6987 22.7722 61.8222 23.6956C61.0391 24.5175 60.0653 24.928 58.903 24.928C57.6484 24.928 56.7471 24.4853 56.1992 23.6H56.1595V28.5286H54.0433V18.4403C54.0433 17.44 54.0165 16.4133 53.9648 15.3603H55.826L55.9441 16.8433H55.9838C56.6885 15.7259 57.7595 15.1682 59.1978 15.1682C60.3204 15.1682 61.2584 15.604 62.0108 16.4767C62.7602 17.3503 63.1364 18.4988 63.1364 19.9233ZM60.9805 19.9993C60.9805 19.0887 60.7711 18.3379 60.3522 17.7471C59.8946 17.1309 59.2822 16.8228 58.5109 16.8228C57.9878 16.8228 57.5144 16.9944 57.0895 17.3327C56.6647 17.674 56.3878 18.1195 56.2577 18.6714C56.1932 18.9288 56.1595 19.1394 56.1595 19.3051V20.8651C56.1595 21.5457 56.3719 22.12 56.7947 22.5889C57.2196 23.0569 57.7714 23.2919 58.4524 23.2919C59.2494 23.2919 59.8698 22.9897 60.3135 22.3871C60.7582 21.7836 60.9805 20.988 60.9805 19.9993Z" fill="white"/>
<path d="M75.3843 21.0778C75.3843 22.1815 74.9942 23.0794 74.2111 23.7727C73.3505 24.5302 72.1524 24.9085 70.6129 24.9085C69.1915 24.9085 68.052 24.6394 67.1895 24.1003L67.6798 22.3677C68.6089 22.9195 69.6283 23.1964 70.739 23.1964C71.536 23.1964 72.1564 23.019 72.6021 22.666C73.0458 22.3131 73.2671 21.8392 73.2671 21.2484C73.2671 20.7219 73.0845 20.2783 72.7182 19.9185C72.3539 19.5587 71.7455 19.2243 70.8958 18.9152C68.5831 18.0679 67.4277 16.8268 67.4277 15.1946C67.4277 14.128 67.8327 13.2534 68.6436 12.5728C69.4516 11.8913 70.5295 11.551 71.8775 11.551C73.0795 11.551 74.078 11.7568 74.8751 12.1672L74.346 13.8618C73.6016 13.464 72.7599 13.2651 71.8179 13.2651C71.0735 13.2651 70.4918 13.4455 70.0749 13.8043C69.7226 14.125 69.5459 14.516 69.5459 14.9791C69.5459 15.492 69.7474 15.9161 70.1523 16.2496C70.5047 16.5577 71.1449 16.8911 72.074 17.2509C73.2105 17.7004 74.0453 18.2259 74.5823 18.8284C75.1173 19.429 75.3843 20.1808 75.3843 21.0778Z" fill="white"/>
<path d="M82.3808 16.9204H80.0482V21.4629C80.0482 22.6183 80.4591 23.1955 81.283 23.1955C81.6612 23.1955 81.9748 23.1633 82.223 23.099L82.2815 24.6775C81.8646 24.8306 81.3157 24.9076 80.6358 24.9076C79.8 24.9076 79.1469 24.657 78.6754 24.1569C78.2059 23.6557 77.9697 22.8153 77.9697 21.6345V16.9185H76.5801V15.3584H77.9697V13.6454L80.0482 13.0292V15.3584H82.3808V16.9204Z" fill="white"/>
<path d="M92.9055 19.9613C92.9055 21.3994 92.4867 22.5802 91.6509 23.5035C90.7745 24.4541 89.6111 24.928 88.161 24.928C86.7634 24.928 85.6507 24.4726 84.8209 23.562C83.9911 22.6513 83.5762 21.5018 83.5762 20.1163C83.5762 18.6665 84.003 17.479 84.8596 16.5556C85.7142 15.6313 86.8676 15.1692 88.3178 15.1692C89.7154 15.1692 90.84 15.6245 91.6886 16.5361C92.5006 17.4205 92.9055 18.5622 92.9055 19.9613ZM90.7099 20.0286C90.7099 19.1657 90.5223 18.4257 90.1422 17.8085C89.6985 17.0617 89.0642 16.6892 88.2423 16.6892C87.3917 16.6892 86.7455 17.0626 86.3018 17.8085C85.9217 18.4267 85.7341 19.1784 85.7341 20.0676C85.7341 20.9305 85.9217 21.6705 86.3018 22.2867C86.7594 23.0335 87.3986 23.406 88.2235 23.406C89.0315 23.406 89.6657 23.0257 90.1233 22.2672C90.5134 21.6383 90.7099 20.8905 90.7099 20.0286Z" fill="white"/>
<path d="M99.7835 17.1885C99.5741 17.1505 99.3507 17.131 99.1165 17.131C98.372 17.131 97.7963 17.4069 97.3913 17.9598C97.039 18.4473 96.8623 19.0635 96.8623 19.8074V24.7165H94.7471L94.7669 18.3069C94.7669 17.2285 94.7401 16.2467 94.6875 15.3614H96.5308L96.6082 17.1515H96.6667C96.8901 16.5363 97.2424 16.041 97.7248 15.6695C98.1963 15.3351 98.7055 15.1683 99.2544 15.1683C99.45 15.1683 99.6267 15.182 99.7835 15.2064V17.1885Z" fill="white"/>
<path d="M109.248 19.5958C109.248 19.9682 109.223 20.2822 109.171 20.5386H102.822C102.847 21.4629 103.154 22.1698 103.743 22.6573C104.278 23.0931 104.97 23.3115 105.82 23.3115C106.76 23.3115 107.617 23.1643 108.388 22.8689L108.72 24.3119C107.819 24.698 106.755 24.89 105.527 24.89C104.05 24.89 102.89 24.463 102.047 23.6099C101.205 22.7567 100.783 21.6111 100.783 20.174C100.783 18.7631 101.175 17.5883 101.96 16.6513C102.782 15.6509 103.893 15.1508 105.291 15.1508C106.663 15.1508 107.703 15.6509 108.408 16.6513C108.967 17.4459 109.248 18.4287 109.248 19.5958ZM107.23 19.0566C107.244 18.4404 107.106 17.9081 106.819 17.4586C106.453 16.8804 105.89 16.5918 105.133 16.5918C104.441 16.5918 103.878 16.8736 103.448 17.4391C103.096 17.8886 102.887 18.4277 102.822 19.0556H107.23V19.0566Z" fill="white"/>
<path d="M36.6858 3.75873C36.6858 4.9063 36.3354 5.77015 35.6356 6.35028C34.9874 6.88555 34.0663 7.15368 32.8732 7.15368C32.2816 7.15368 31.7754 7.12833 31.3516 7.07763V0.807404C31.9044 0.719654 32.5 0.674805 33.1432 0.674805C34.2797 0.674805 35.1363 0.917579 35.714 1.40313C36.3612 1.95205 36.6858 2.73693 36.6858 3.75873ZM35.5889 3.787C35.5889 3.04308 35.3884 2.4727 34.9874 2.0749C34.5864 1.67808 34.0008 1.47918 33.2296 1.47918C32.902 1.47918 32.6231 1.50063 32.3918 1.54548V6.31226C32.5198 6.33176 32.7541 6.34053 33.0946 6.34053C33.8906 6.34053 34.505 6.12311 34.9378 5.68825C35.3706 5.2534 35.5889 4.61965 35.5889 3.787Z" fill="white"/>
<path d="M42.5027 4.76112C42.5027 5.46799 42.2973 6.04714 41.8863 6.50149C41.4555 6.96852 40.8848 7.20154 40.1721 7.20154C39.4852 7.20154 38.9383 6.97827 38.5304 6.52977C38.1234 6.08224 37.9199 5.51772 37.9199 4.83717C37.9199 4.12542 38.1294 3.5414 38.5502 3.08802C38.9711 2.63465 39.5369 2.40747 40.2495 2.40747C40.9364 2.40747 41.4883 2.63075 41.9062 3.07827C42.3032 3.51312 42.5027 4.07472 42.5027 4.76112ZM41.4238 4.79427C41.4238 4.37015 41.3305 4.00647 41.1449 3.70325C40.9265 3.33665 40.6158 3.15334 40.2118 3.15334C39.7939 3.15334 39.4763 3.33665 39.2579 3.70325C39.0713 4.00647 38.979 4.376 38.979 4.8128C38.979 5.23692 39.0723 5.60059 39.2579 5.90382C39.4833 6.27042 39.7969 6.45372 40.2019 6.45372C40.5989 6.45372 40.9106 6.2675 41.1349 5.89407C41.3275 5.585 41.4238 5.2184 41.4238 4.79427Z" fill="white"/>
<path d="M50.3009 2.50098L48.8368 7.09713H47.8839L47.2775 5.1013C47.1236 4.60308 46.9985 4.10778 46.9013 3.61638H46.8824C46.7921 4.12143 46.667 4.61575 46.5062 5.1013L45.862 7.09713H44.8982L43.5215 2.50098H44.5905L45.1196 4.68595C45.2476 5.2027 45.3528 5.69508 45.4372 6.16113H45.456C45.5335 5.77698 45.6615 5.28753 45.8422 4.6957L46.5062 2.50195H47.3539L47.9901 4.6489C48.144 5.17248 48.2691 5.67655 48.3653 6.1621H48.3941C48.4646 5.68923 48.5708 5.18515 48.7117 4.6489L49.2795 2.50195H50.3009V2.50098Z" fill="white"/>
<path d="M55.6932 7.09722H54.6529V4.46472C54.6529 3.65352 54.3393 3.24792 53.71 3.24792C53.4013 3.24792 53.1521 3.35907 52.9586 3.58234C52.767 3.80562 52.6697 4.06887 52.6697 4.37014V7.09624H51.6295V3.81439C51.6295 3.41074 51.6166 2.97297 51.5918 2.49912H52.506L52.5546 3.21769H52.5834C52.7045 2.99442 52.8851 2.81014 53.1224 2.66292C53.4043 2.49132 53.7199 2.40454 54.0653 2.40454C54.5021 2.40454 54.8654 2.54299 55.1542 2.82087C55.5135 3.16114 55.6932 3.66912 55.6932 4.34382V7.09722Z" fill="white"/>
<path d="M58.5598 7.09716H57.5215V0.39209H58.5598V7.09716Z" fill="white"/>
<path d="M64.6844 4.76112C64.6844 5.46799 64.4789 6.04714 64.068 6.50149C63.6372 6.96852 63.0654 7.20154 62.3538 7.20154C61.6659 7.20154 61.119 6.97827 60.712 6.52977C60.305 6.08224 60.1016 5.51772 60.1016 4.83717C60.1016 4.12542 60.311 3.5414 60.7319 3.08802C61.1527 2.63465 61.7185 2.40747 62.4302 2.40747C63.1181 2.40747 63.6689 2.63075 64.0878 3.07827C64.4849 3.51312 64.6844 4.07472 64.6844 4.76112ZM63.6044 4.79427C63.6044 4.37015 63.5111 4.00647 63.3255 3.70325C63.1081 3.33665 62.7964 3.15334 62.3935 3.15334C61.9746 3.15334 61.657 3.33665 61.4396 3.70325C61.253 4.00647 61.1607 4.376 61.1607 4.8128C61.1607 5.23692 61.254 5.60059 61.4396 5.90382C61.6649 6.27042 61.9786 6.45372 62.3835 6.45372C62.7806 6.45372 63.0913 6.2675 63.3156 5.89407C63.5091 5.585 63.6044 5.2184 63.6044 4.79427Z" fill="white"/>
<path d="M69.7183 7.09722H68.7843L68.7068 6.5678H68.678C68.3584 6.98997 67.9028 7.20154 67.3112 7.20154C66.8695 7.20154 66.5122 7.06212 66.2432 6.78522C65.999 6.53367 65.877 6.22069 65.877 5.84922C65.877 5.28762 66.1152 4.85959 66.5946 4.56319C67.073 4.26679 67.746 4.12152 68.6125 4.12834V4.04255C68.6125 3.43707 68.289 3.13482 67.6408 3.13482C67.1792 3.13482 66.7723 3.2489 66.4209 3.4751L66.2095 2.8043C66.6442 2.54007 67.1812 2.40747 67.8145 2.40747C69.0374 2.40747 69.6508 3.04122 69.6508 4.30872V6.00132C69.6508 6.46055 69.6736 6.82617 69.7183 7.09722ZM68.6383 5.51772V4.8089C67.4909 4.7894 66.9172 5.09847 66.9172 5.73515C66.9172 5.975 66.9827 6.15439 67.1167 6.27432C67.2507 6.39424 67.4214 6.45372 67.6249 6.45372C67.8532 6.45372 68.0666 6.38255 68.2612 6.24117C68.4567 6.09882 68.5768 5.91844 68.6215 5.69712C68.6324 5.64739 68.6383 5.58694 68.6383 5.51772Z" fill="white"/>
<path d="M75.6307 7.09716H74.7076L74.659 6.35909H74.6302C74.3354 6.92069 73.8331 7.20149 73.1274 7.20149C72.5636 7.20149 72.0941 6.98406 71.7219 6.54921C71.3497 6.11436 71.1641 5.54984 71.1641 4.85661C71.1641 4.11269 71.3656 3.51014 71.7705 3.04994C72.1626 2.62094 72.643 2.40644 73.2148 2.40644C73.8431 2.40644 74.2828 2.61411 74.5329 3.03044H74.5528V0.39209H75.594V5.85891C75.594 6.30644 75.6059 6.71886 75.6307 7.09716ZM74.5528 5.15886V4.39251C74.5528 4.25991 74.5428 4.15266 74.524 4.07076C74.4654 3.82506 74.3394 3.61836 74.1478 3.45164C73.9542 3.28491 73.721 3.20106 73.452 3.20106C73.0639 3.20106 72.7601 3.35219 72.5368 3.65541C72.3155 3.95864 72.2033 4.34571 72.2033 4.81859C72.2033 5.27294 72.3095 5.64149 72.5229 5.92521C72.7482 6.22746 73.052 6.37859 73.4321 6.37859C73.7736 6.37859 74.0465 6.25281 74.254 6.00029C74.4545 5.76726 74.5528 5.48646 74.5528 5.15886Z" fill="white"/>
<path d="M84.5262 4.76112C84.5262 5.46799 84.3207 6.04714 83.9098 6.50149C83.479 6.96852 82.9092 7.20154 82.1956 7.20154C81.5097 7.20154 80.9628 6.97827 80.5538 6.52977C80.1468 6.08224 79.9434 5.51772 79.9434 4.83717C79.9434 4.12542 80.1528 3.5414 80.5737 3.08802C80.9945 2.63465 81.5603 2.40747 82.274 2.40747C82.9598 2.40747 83.5127 2.63075 83.9296 3.07827C84.3266 3.51312 84.5262 4.07472 84.5262 4.76112ZM83.4482 4.79427C83.4482 4.37015 83.3549 4.00647 83.1693 3.70325C82.9499 3.33665 82.6402 3.15334 82.2353 3.15334C81.8184 3.15334 81.5007 3.33665 81.2814 3.70325C81.0948 4.00647 81.0025 4.376 81.0025 4.8128C81.0025 5.23692 81.0958 5.60059 81.2814 5.90382C81.5067 6.27042 81.8204 6.45372 82.2253 6.45372C82.6224 6.45372 82.935 6.2675 83.1594 5.89407C83.3509 5.585 83.4482 5.2184 83.4482 4.79427Z" fill="white"/>
<path d="M90.1238 7.09722H89.0846V4.46472C89.0846 3.65352 88.7709 3.24792 88.1406 3.24792C87.8319 3.24792 87.5828 3.35907 87.3902 3.58234C87.1977 3.80562 87.1014 4.06887 87.1014 4.37014V7.09624H86.0602V3.81439C86.0602 3.41074 86.0483 2.97297 86.0234 2.49912H86.9366L86.9853 3.21769H87.014C87.1361 2.99442 87.3168 2.81014 87.553 2.66292C87.8359 2.49132 88.1506 2.40454 88.497 2.40454C88.9327 2.40454 89.296 2.54299 89.5849 2.82087C89.9452 3.16114 90.1238 3.66912 90.1238 4.34382V7.09722Z" fill="white"/>
<path d="M97.1251 3.26635H95.9797V5.4991C95.9797 6.06655 96.1831 6.35027 96.5861 6.35027C96.7727 6.35027 96.9276 6.33467 97.0497 6.3025L97.0765 7.07762C96.871 7.15367 96.601 7.1917 96.2685 7.1917C95.8576 7.1917 95.538 7.06885 95.3067 6.82315C95.0744 6.57745 94.9593 6.16405 94.9593 5.58392V3.26635H94.2754V2.50097H94.9593V1.65857L95.9787 1.35632V2.5H97.1241V3.26635H97.1251Z" fill="white"/>
<path d="M102.626 7.09716H101.585V4.48417C101.585 3.66029 101.271 3.24786 100.643 3.24786C100.161 3.24786 99.831 3.48674 99.6504 3.96449C99.6196 4.06492 99.6017 4.18777 99.6017 4.33207V7.09619H98.5625V0.39209H99.6017V3.16207H99.6216C99.9492 2.65799 100.419 2.40644 101.027 2.40644C101.458 2.40644 101.814 2.54489 102.097 2.82276C102.45 3.16889 102.626 3.68369 102.626 4.36424V7.09716Z" fill="white"/>
<path d="M108.31 4.58171C108.31 4.76501 108.296 4.91906 108.272 5.04483H105.152C105.166 5.49918 105.315 5.84531 105.604 6.08516C105.868 6.29966 106.208 6.40691 106.625 6.40691C107.086 6.40691 107.507 6.33476 107.887 6.18948L108.049 6.89928C107.606 7.08843 107.084 7.18301 106.479 7.18301C105.754 7.18301 105.184 6.97338 104.771 6.55413C104.356 6.13488 104.15 5.57231 104.15 4.86641C104.15 4.17318 104.342 3.59598 104.728 3.13578C105.131 2.64438 105.676 2.39868 106.364 2.39868C107.037 2.39868 107.548 2.64438 107.893 3.13578C108.172 3.52578 108.31 4.00841 108.31 4.58171ZM107.318 4.31748C107.326 4.01426 107.257 3.75296 107.116 3.53261C106.936 3.24888 106.661 3.10653 106.288 3.10653C105.949 3.10653 105.672 3.24498 105.461 3.52286C105.288 3.74418 105.186 4.00841 105.152 4.31748H107.318Z" fill="white"/>
</svg>
