<svg width="116" height="28" viewBox="0 0 116 28" fill="none" xmlns="http://www.w3.org/2000/svg">
<path d="M38.063 3.98764C38.063 4.80177 37.8149 5.4538 37.326 5.94008C36.764 6.51655 36.032 6.80661 35.1349 6.80661C34.2775 6.80661 33.5455 6.51167 32.945 5.93033C32.3432 5.34045 32.043 4.61652 32.043 3.74998C32.043 2.88345 32.3432 2.15952 32.945 1.57452C33.5455 0.988297 34.2775 0.693359 35.1349 0.693359C35.5617 0.693359 35.9687 0.779891 36.357 0.940766C36.7441 1.10286 37.0593 1.32223 37.2876 1.5928L36.7689 2.10711C36.3707 1.6452 35.8285 1.4173 35.1349 1.4173C34.5096 1.4173 33.9674 1.6318 33.507 2.06445C33.0517 2.49833 32.8234 3.06017 32.8234 3.74998C32.8234 4.4398 33.0517 5.00651 33.507 5.44039C33.9674 5.86817 34.5096 6.08755 35.1349 6.08755C35.7987 6.08755 36.357 5.86817 36.7975 5.43551C37.0878 5.14911 37.2528 4.75423 37.2963 4.24967H35.1349V3.54523H38.0184C38.0531 3.69758 38.063 3.84505 38.063 3.98764V3.98764Z" fill="white" stroke="white" stroke-width="0.16" stroke-miterlimit="10"/>
<path d="M42.6413 1.54524H39.9328V3.39774H42.3746V4.10217H39.9328V5.95467H42.6413V6.67252H39.166V0.827393H42.6413V1.54524Z" fill="white" stroke="white" stroke-width="0.16" stroke-miterlimit="10"/>
<path d="M45.8715 6.67252H45.1047V1.54524H43.4434V0.827393H47.5341V1.54524H45.8715V6.67252V6.67252Z" fill="white" stroke="white" stroke-width="0.16" stroke-miterlimit="10"/>
<path d="M50.4922 6.67252V0.827393H51.257V6.67252H50.4922Z" fill="white" stroke="white" stroke-width="0.16" stroke-miterlimit="10"/>
<path d="M54.6527 6.67252H53.8922V1.54524H52.2246V0.827393H56.3203V1.54524H54.6527V6.67252Z" fill="white" stroke="white" stroke-width="0.16" stroke-miterlimit="10"/>
<path d="M64.061 5.92058C63.4742 6.51167 62.7471 6.80661 61.8798 6.80661C61.0076 6.80661 60.2805 6.51167 59.6936 5.92058C59.108 5.3307 58.8164 4.60677 58.8164 3.74998C58.8164 2.8932 59.108 2.16927 59.6936 1.57939C60.2805 0.988297 61.0076 0.693359 61.8798 0.693359C62.7421 0.693359 63.4692 0.988297 64.0561 1.58427C64.6467 2.17902 64.9382 2.89808 64.9382 3.74998C64.9382 4.60677 64.6467 5.3307 64.061 5.92058ZM60.2606 5.43064C60.7023 5.86817 61.2396 6.08755 61.8798 6.08755C62.5151 6.08755 63.0573 5.86817 63.494 5.43064C63.9345 4.99311 64.1578 4.43127 64.1578 3.74998C64.1578 3.0687 63.9345 2.50686 63.494 2.06933C63.0573 1.6318 62.5151 1.41242 61.8798 1.41242C61.2396 1.41242 60.7023 1.6318 60.2606 2.06933C59.8202 2.50686 59.5968 3.0687 59.5968 3.74998C59.5968 4.43127 59.8202 4.99311 60.2606 5.43064V5.43064Z" fill="white" stroke="white" stroke-width="0.16" stroke-miterlimit="10"/>
<path d="M66.0156 6.67252V0.827393H66.9462L69.8396 5.37333H69.8731L69.8396 4.24964V0.827393H70.6051V6.67252H69.8061L66.7762 1.90233H66.7427L66.7762 3.03089V6.67252H66.0156V6.67252Z" fill="white" stroke="white" stroke-width="0.16" stroke-miterlimit="10"/>
<path d="M58.6287 15.2087C56.2973 15.2087 54.3928 16.9515 54.3928 19.3561C54.3928 21.7412 56.2973 23.5023 58.6287 23.5023C60.965 23.5023 62.8695 21.7412 62.8695 19.3561C62.8695 16.9515 60.965 15.2087 58.6287 15.2087ZM58.6287 21.8692C57.3495 21.8692 56.2489 20.832 56.2489 19.3561C56.2489 17.8607 57.3495 16.8418 58.6287 16.8418C59.9079 16.8418 61.0134 17.8607 61.0134 19.3561C61.0134 20.832 59.9079 21.8692 58.6287 21.8692V21.8692ZM49.3864 15.2087C47.0501 15.2087 45.1505 16.9515 45.1505 19.3561C45.1505 21.7412 47.0501 23.5023 49.3864 23.5023C51.7215 23.5023 53.6223 21.7412 53.6223 19.3561C53.6223 16.9515 51.7215 15.2087 49.3864 15.2087ZM49.3864 21.8692C48.1059 21.8692 47.0017 20.832 47.0017 19.3561C47.0017 17.8607 48.1059 16.8418 49.3864 16.8418C50.6656 16.8418 51.7661 17.8607 51.7661 19.3561C51.7661 20.832 50.6656 21.8692 49.3864 21.8692ZM38.3885 16.4799V18.2422H42.6727C42.5474 19.2269 42.2124 19.9509 41.6988 20.4554C41.0734 21.0648 40.0994 21.7412 38.3885 21.7412C35.7519 21.7412 33.6873 19.6511 33.6873 17.0612C33.6873 14.4714 35.7519 12.3812 38.3885 12.3812C39.8141 12.3812 40.8513 12.9284 41.6169 13.6377L42.8812 12.3958C41.8104 11.3916 40.3861 10.6201 38.3885 10.6201C34.7729 10.6201 31.7344 13.5098 31.7344 17.0612C31.7344 20.6127 34.7729 23.5023 38.3885 23.5023C40.3426 23.5023 41.8104 22.8734 42.9643 21.6937C44.1467 20.5322 44.5152 18.8991 44.5152 17.5804C44.5152 17.1709 44.4805 16.7943 44.4185 16.4799H38.3885ZM83.3603 17.8461C83.0117 16.9186 81.936 15.2087 79.7448 15.2087C77.5735 15.2087 75.7658 16.8894 75.7658 19.3561C75.7658 21.6791 77.5549 23.5023 79.9533 23.5023C81.8925 23.5023 83.0117 22.3408 83.472 21.6644L82.0328 20.7223C81.5526 21.4122 80.8987 21.8692 79.9533 21.8692C79.014 21.8692 78.3403 21.4463 77.9085 20.6127L83.5551 18.3177L83.3603 17.8461V17.8461ZM77.6033 19.2269C77.5549 17.6279 78.8676 16.8089 79.8081 16.8089C80.5451 16.8089 81.1704 17.1709 81.3789 17.6889L77.6033 19.2269V19.2269ZM73.0138 23.25H74.87V11.0625H73.0138V23.25ZM69.974 16.1325H69.912C69.4951 15.6475 68.6998 15.2087 67.6923 15.2087C65.5781 15.2087 63.645 17.032 63.645 19.3695C63.645 21.6937 65.5781 23.5023 67.6923 23.5023C68.6998 23.5023 69.4951 23.0599 69.912 22.5602H69.974V23.155C69.974 24.7406 69.1117 25.5925 67.7208 25.5925C66.5868 25.5925 65.8833 24.7881 65.5929 24.1117L63.9787 24.7735C64.444 25.8728 65.6761 27.2256 67.7208 27.2256C69.8971 27.2256 71.7334 25.9678 71.7334 22.9076V15.461H69.974V16.1325V16.1325ZM67.8511 21.8692C66.5719 21.8692 65.5011 20.8174 65.5011 19.3695C65.5011 17.9082 66.5719 16.8418 67.8511 16.8418C69.1117 16.8418 70.1055 17.9082 70.1055 19.3695C70.1055 20.8174 69.1117 21.8692 67.8511 21.8692V21.8692ZM92.0505 11.0625H87.6111V23.25H89.4623V18.6322H92.0505C94.1064 18.6322 96.1226 17.1709 96.1226 14.8467C96.1226 12.5238 94.1014 11.0625 92.0505 11.0625V11.0625ZM92.0989 16.9369H89.4623V12.7578H92.0989C93.4811 12.7578 94.2702 13.8852 94.2702 14.8467C94.2702 15.7901 93.4811 16.9369 92.0989 16.9369ZM103.542 15.1856C102.205 15.1856 100.814 15.7657 100.242 17.0515L101.885 17.7279C102.238 17.0515 102.888 16.8321 103.576 16.8321C104.536 16.8321 105.51 17.3988 105.525 18.3994V18.5274C105.19 18.3372 104.473 18.0557 103.591 18.0557C101.821 18.0557 100.019 19.0124 100.019 20.7979C100.019 22.431 101.468 23.4828 103.097 23.4828C104.343 23.4828 105.03 22.9307 105.462 22.2884H105.525V23.2305H107.313V18.5554C107.313 16.3946 105.67 15.1856 103.542 15.1856ZM103.319 21.8643C102.713 21.8643 101.87 21.5694 101.87 20.832C101.87 19.8887 102.922 19.5267 103.833 19.5267C104.648 19.5267 105.03 19.7035 105.525 19.9362C105.38 21.0648 104.391 21.8643 103.319 21.8643V21.8643ZM113.827 15.4525L111.699 20.7357H111.636L109.436 15.4525H107.439L110.745 22.8356L108.859 26.9441H110.793L115.886 15.4525H113.827V15.4525ZM97.14 23.25H98.9962V11.0625H97.14V23.25Z" fill="white"/>
<path d="M1.35875 1.35033C1.06718 1.65014 0.898438 2.11692 0.898438 2.72142V24.2836C0.898438 24.8881 1.06718 25.3548 1.35875 25.6546L1.43071 25.7205L13.7314 13.6426V13.3575L1.43071 1.27964L1.35875 1.35033Z" fill="url(#paint0_linear_0_1)"/>
<path d="M17.832 17.6705L13.7363 13.6426V13.3574L17.837 9.32941L17.9288 9.38181L22.785 12.096C24.171 12.8662 24.171 14.1337 22.785 14.9088L17.9288 17.6181L17.832 17.6705V17.6705Z" fill="url(#paint1_linear_0_1)"/>
<path d="M17.9206 17.6182L13.7281 13.5L1.35547 25.6546C1.81578 26.1299 2.56643 26.1872 3.42006 25.7119L17.9206 17.6182" fill="url(#paint2_linear_0_1)"/>
<path d="M17.9206 9.38184L3.42006 1.28813C2.56643 0.817688 1.81578 0.874968 1.35547 1.35028L13.7281 13.5L17.9206 9.38184Z" fill="url(#paint3_linear_0_1)"/>
<defs>
<linearGradient id="paint0_linear_0_1" x1="12.6393" y1="24.5081" x2="-3.72096" y2="7.85268" gradientUnits="userSpaceOnUse">
<stop stop-color="#00A0FF"/>
<stop offset="0.0066" stop-color="#00A1FF"/>
<stop offset="0.2601" stop-color="#00BEFF"/>
<stop offset="0.5122" stop-color="#00D2FF"/>
<stop offset="0.7604" stop-color="#00DFFF"/>
<stop offset="1" stop-color="#00E3FF"/>
</linearGradient>
<linearGradient id="paint1_linear_0_1" x1="24.5897" y1="13.4986" x2="0.572072" y2="13.4986" gradientUnits="userSpaceOnUse">
<stop stop-color="#FFE000"/>
<stop offset="0.4087" stop-color="#FFBD00"/>
<stop offset="0.7754" stop-color="#FFA500"/>
<stop offset="1" stop-color="#FF9C00"/>
</linearGradient>
<linearGradient id="paint2_linear_0_1" x1="15.6409" y1="11.2613" x2="-6.54493" y2="-11.3248" gradientUnits="userSpaceOnUse">
<stop stop-color="#FF3A44"/>
<stop offset="1" stop-color="#C31162"/>
</linearGradient>
<linearGradient id="paint3_linear_0_1" x1="-1.75899" y1="32.8282" x2="8.14796" y2="22.7426" gradientUnits="userSpaceOnUse">
<stop stop-color="#32A071"/>
<stop offset="0.0685" stop-color="#2DA771"/>
<stop offset="0.4762" stop-color="#15CF74"/>
<stop offset="0.8009" stop-color="#06E775"/>
<stop offset="1" stop-color="#00F076"/>
</linearGradient>
</defs>
</svg>
