<svg width="1170" height="210" viewBox="0 0 1170 210" fill="none" xmlns="http://www.w3.org/2000/svg">
<path d="M584.866 0C526.095 0 478.425 47.0245 478.425 105C478.425 162.975 526.095 210 584.866 210C643.636 210 691.306 162.975 691.306 105C691.306 47.0245 643.675 0 584.866 0ZM598.118 141.869C598.118 149.069 592.202 154.904 584.904 154.904C577.606 154.904 571.69 149.069 571.69 141.869V68.0928C571.69 60.8932 577.606 55.0577 584.904 55.0577C592.202 55.0577 598.118 60.8932 598.118 68.0928V141.869ZM106.44 0C47.6697 0 0 47.0245 0 105C0 162.975 47.6697 210 106.44 210C165.211 210 212.881 162.975 212.881 105C212.881 47.0245 165.25 0 106.44 0ZM171.549 109.964L156.069 146.871C154.725 150.054 152.151 152.593 148.924 153.919L111.511 169.19C109.898 169.872 108.169 170.175 106.44 170.175C103.867 170.175 101.293 169.417 99.1037 167.977C95.4161 165.552 93.2266 161.498 93.2266 157.14V104.962C93.2266 97.7625 99.1421 91.9271 106.44 91.9271C113.739 91.9271 119.654 97.7625 119.654 104.962V137.625L133.713 131.866L145.006 104.962L133.713 78.0585L101.37 64.834C94.6095 62.0678 91.4212 54.4515 94.2253 47.7824C97.0294 41.1133 104.75 37.9682 111.511 40.7344L148.924 56.0051C152.151 57.3313 154.725 59.8701 156.069 63.053L171.549 99.9603C172.894 103.181 172.894 106.781 171.549 109.964ZM345.787 0C287.017 0 239.347 47.0245 239.347 105C239.347 162.975 287.017 210 345.787 210C404.558 210 452.228 162.975 452.228 105C452.228 47.0245 404.597 0 345.787 0ZM388.271 153.919L350.858 169.19C349.245 169.834 347.516 170.175 345.787 170.175C344.059 170.175 342.33 169.834 340.717 169.19L303.303 153.919C299.232 152.252 296.274 148.69 295.391 144.408C294.545 140.126 295.89 135.731 299.001 132.624L359.808 72.6398L345.749 66.8802L313.406 80.1047C306.645 82.8708 298.924 79.6878 296.12 73.0567C293.316 66.4255 296.543 58.7712 303.265 56.0051L340.679 40.7344C343.905 39.4082 347.554 39.4082 350.781 40.7344L388.195 56.0051C392.266 57.6723 395.224 61.2342 396.108 65.5161C396.953 69.7979 395.608 74.1934 392.497 77.3006L331.69 137.284L345.749 143.044L378.092 129.82C384.853 127.053 392.574 130.236 395.378 136.868C398.22 143.537 394.994 151.153 388.271 153.919ZM1063.56 0C1004.79 0 957.119 47.0245 957.119 105C957.119 162.975 1004.79 210 1063.56 210C1122.33 210 1170 162.975 1170 105C1170 47.0245 1122.33 0 1063.56 0ZM1036.25 131.904L1050.31 137.663V105C1050.31 97.8004 1056.22 91.965 1063.52 91.965C1070.82 91.965 1076.73 97.8004 1076.73 105V157.178C1076.73 161.536 1074.55 165.59 1070.86 168.015C1068.67 169.455 1066.09 170.213 1063.52 170.213C1061.79 170.213 1060.1 169.872 1058.45 169.228L1021.04 153.957C1017.81 152.631 1015.24 150.092 1013.89 146.909L998.412 110.002C997.068 106.819 997.068 103.219 998.412 100.036L1013.89 63.1288C1015.24 59.9459 1017.81 57.4071 1021.04 56.0808L1058.45 40.8102C1065.21 38.044 1072.93 41.227 1075.74 47.8582C1078.54 54.5272 1075.31 62.1436 1068.59 64.9098L1036.25 78.1342L1024.96 105.038L1036.25 131.904ZM824.213 0C765.442 0 717.772 47.0245 717.772 105C717.772 162.975 765.442 210 824.213 210C882.983 210 930.653 162.975 930.653 105C930.653 47.0245 882.983 0 824.213 0ZM889.321 109.964L873.841 146.871C872.151 150.888 868.54 153.805 864.2 154.677C859.859 155.511 855.403 154.184 852.253 151.115L791.447 91.1313L785.608 105L799.014 136.905C801.818 143.575 798.592 151.191 791.869 153.957C790.218 154.639 788.489 154.942 786.799 154.942C781.613 154.942 776.697 151.911 774.584 146.871L759.104 109.964C757.759 106.781 757.759 103.181 759.104 99.9982L774.584 63.0909C776.274 59.0743 779.885 56.1566 784.225 55.2851C788.566 54.4515 793.022 55.7777 796.172 58.847L856.978 118.831L862.817 104.962L849.411 73.0567C846.607 66.3876 849.833 58.7712 856.556 56.0051C863.316 53.2389 871.037 56.4219 873.841 63.053L889.321 99.9603C890.666 103.181 890.666 106.781 889.321 109.964Z" fill="#3E1E4D"/>
</svg>
