<svg width="64" height="64" viewBox="0 0 64 64" fill="none" xmlns="http://www.w3.org/2000/svg">
<rect width="64" height="64" fill="#F8F8FA"/>
<path d="M17.6562 49.7515V51.3068C17.6562 51.6956 17.9673 52.0067 18.3561 52.0067H23.5664C23.9553 52.0067 24.2663 51.6956 24.2663 51.3068V49.7515H17.6562Z" fill="#8A22DC"/>
<path d="M39.4316 49.7515V51.3068C39.4316 51.6956 39.7427 52.0067 40.1315 52.0067H45.3418C45.7307 52.0067 46.0417 51.6956 46.0417 51.3068V49.7515H39.4316Z" fill="#8A22DC"/>
<path d="M45.884 14.6792H17.8883C15.7886 14.6792 14 16.39 14 18.5675V46.4854C14 48.5851 15.7108 50.3737 17.8883 50.3737H45.884C47.9836 50.3737 49.7723 48.6628 49.7723 46.4854V18.5675C49.6945 16.39 47.9836 14.6792 45.884 14.6792Z" fill="#8A22DC"/>
<path d="M49.6949 18.5675V46.4854C49.6949 47.8074 48.995 48.9739 47.984 49.6738C47.3619 50.0626 46.662 50.3737 45.8066 50.3737H17.9664C15.8667 50.3737 14.0781 48.6628 14.0781 46.4854L45.8843 14.6792C47.984 14.6792 49.6949 16.39 49.6949 18.5675Z" fill="#8A22DC"/>
<path d="M16.4336 19.1133C16.4336 18.0087 17.329 17.1133 18.4336 17.1133H45.2624C46.367 17.1133 47.2624 18.0087 47.2624 19.1133V45.9421C47.2624 47.0467 46.367 47.9421 45.2624 47.9421H18.4336C17.329 47.9421 16.4336 47.0467 16.4336 45.9421V19.1133Z" fill="#FA9C45"/>
<path d="M37.5273 19.1133C37.5273 18.0087 38.4228 17.1133 39.5273 17.1133H45.2628C46.3673 17.1133 47.2628 18.0087 47.2628 19.1133V45.9421C47.2628 47.0467 46.3673 47.9421 45.2628 47.9421H39.5273C38.4228 47.9421 37.5273 47.0467 37.5273 45.9421V19.1133Z" fill="white"/>
<path opacity="0.25" d="M47.9838 49.6739C47.3617 50.0627 46.6618 50.3738 45.8064 50.3738H33.8305L24.1875 40.6531L24.7319 35.7538L25.1985 31.71L26.9093 28.4438L29.4756 31.0101L47.9838 49.6739Z" fill="#671A8B"/>
<path d="M24.8875 33.2651C26.4336 33.2651 27.687 32.0117 27.687 30.4656C27.687 28.9194 26.4336 27.666 24.8875 27.666C23.3413 27.666 22.0879 28.9194 22.0879 30.4656C22.0879 32.0117 23.3413 33.2651 24.8875 33.2651Z" fill="#EBEEFA"/>
<path d="M24.965 40.8868H24.8094C24.1873 40.8868 23.7207 40.4202 23.7207 39.7981V30.4662C23.7207 29.844 24.1873 29.3774 24.8094 29.3774H24.965C25.5871 29.3774 26.0537 29.844 26.0537 30.4662V39.7203C26.0537 40.3424 25.5871 40.8868 24.965 40.8868Z" fill="white"/>
<path d="M56.8884 17.2809C57.6886 22.5958 54.0269 27.557 48.7101 28.3603C43.3946 29.1635 38.437 25.5048 37.6368 20.1887C36.8378 14.8738 40.4995 9.91258 45.8151 9.11061C51.1318 8.3074 56.0895 11.9648 56.8884 17.2809Z" fill="#FA9C45"/>
<path d="M50.7393 16.3593H50.6551V15.5202C50.6551 13.7143 49.1331 12.2451 47.2623 12.2451C45.3914 12.2451 43.8694 13.7143 43.8694 15.5202V16.3593H43.7853C43.0172 16.3593 42.3945 16.9603 42.3945 17.7018V23.0719C42.3945 23.8133 43.0172 24.4144 43.7853 24.4144H50.7392C51.5073 24.4144 52.1299 23.8133 52.1299 23.0719V17.7018C52.13 16.9603 51.5073 16.3593 50.7393 16.3593ZM48.1359 20.6801V22.1852H46.4086V20.6801C46.1674 20.4591 46.0161 20.1475 46.0161 19.801C46.0161 19.1314 46.5785 18.5884 47.2723 18.5884C47.9661 18.5884 48.5284 19.1314 48.5284 19.801C48.5284 20.1475 48.3772 20.4591 48.1359 20.6801ZM45.4396 16.3593V15.5202C45.4396 14.5501 46.2572 13.7609 47.2623 13.7609C48.2672 13.7609 49.0849 14.5501 49.0849 15.5202V16.3593H45.4396Z" fill="white"/>
</svg>
