<svg width="64" height="64" viewBox="0 0 64 64" fill="none" xmlns="http://www.w3.org/2000/svg">
<rect width="64" height="64" fill="#F8F8FA"/>
<path d="M18.4989 54.2616L19.9089 29.1746L59.0004 23.5918L18.4989 54.2616Z" fill="#8A22DC"/>
<path d="M7.78772 26.9331L59.0005 23.5923C32.83 32.5787 19.6778 37.1001 19.5432 37.1567L7.78772 26.9331Z" fill="#8A22DC"/>
<path d="M37.0819 40.5344L18.4997 54.2625L23.5354 40.6404L37.0819 40.5344Z" fill="#6F20AC"/>
<path d="M59.0001 23.5923L35.3656 50.8697L23.5342 40.64L59.0001 23.5923Z" fill="#8A22DC"/>
<g clip-path="url(#clip0_211_7800)">
<path d="M49.2875 22.9137C50.8908 31.6218 45.1222 39.9843 36.4034 41.5922C27.6845 43.2001 19.3157 37.4467 17.7125 28.7386C16.1077 20.0306 21.8763 11.6697 30.5966 10.0602C39.3155 8.45226 47.6843 14.2072 49.2875 22.9137Z" fill="#F6F8FF"/>
<path d="M49.2856 22.9137C50.8888 31.6218 45.1203 39.9843 36.4014 41.5922C27.6826 43.2001 19.3138 37.4467 17.7105 28.7386C16.1057 20.0306 21.8744 11.6697 30.5947 10.0602C39.3135 8.45226 47.6824 14.2072 49.2856 22.9137Z" fill="#FA9C45"/>
<path d="M45.5282 23.6064C46.7512 30.2407 42.3551 36.6146 35.7096 37.8404C29.0657 39.0662 22.6883 34.6801 21.4653 28.0442C20.2438 21.4098 24.64 15.0359 31.2839 13.8117C37.9294 12.5859 44.3067 16.9704 45.5282 23.6064Z" fill="#FF8030"/>
<path d="M45.4555 23.2289C45.3825 23.2438 45.2343 22.7248 44.871 21.839C44.5032 20.9581 43.8949 19.7004 42.8026 18.4037C42.2581 17.7585 41.5963 17.1076 40.8065 16.5095C40.0138 15.9193 39.1022 15.372 38.0731 14.9584C37.56 14.7484 37.0213 14.5658 36.4575 14.4295C35.8951 14.2899 35.3134 14.1791 34.7133 14.1268C34.1147 14.0728 33.5015 14.0491 32.881 14.0897C32.2603 14.1272 31.635 14.2117 31.0097 14.3432C30.3861 14.4824 29.7812 14.6664 29.201 14.8871C28.6192 15.1094 28.0704 15.3838 27.5489 15.6823C27.0243 15.9778 26.5402 16.3205 26.0863 16.6809C25.6293 17.0383 25.2155 17.4287 24.835 17.8321C24.0707 18.6359 23.4665 19.5126 22.9902 20.3788C22.5202 21.2496 22.1861 22.1175 21.958 22.9303C21.5004 24.5622 21.4695 25.9597 21.4991 26.9127C21.5367 27.87 21.6166 28.4038 21.5436 28.4187C21.4894 28.4314 21.2884 27.922 21.1362 26.9464C20.9919 25.9753 20.9176 24.514 21.3153 22.7683C21.5149 21.8986 21.8297 20.9641 22.3004 20.0198C22.7759 19.0816 23.3978 18.1277 24.2003 17.2476C24.5999 16.8061 25.0375 16.379 25.5215 15.9863C26.0039 15.5921 26.5229 15.217 27.084 14.8906C27.6452 14.5626 28.2353 14.2618 28.8618 14.0209C29.4866 13.7768 30.1394 13.5772 30.811 13.427C31.4845 13.2862 32.1612 13.1968 32.8302 13.1593C33.4992 13.1203 34.1626 13.1486 34.8069 13.2136C35.4543 13.2769 36.0802 13.4034 36.6839 13.5635C37.2873 13.7189 37.8629 13.9269 38.408 14.1624C39.5029 14.6302 40.4634 15.24 41.2865 15.898C42.105 16.5625 42.78 17.2816 43.3219 17.9895C44.4058 19.4131 44.9441 20.7748 45.2155 21.7183C45.4825 22.6698 45.5082 23.2178 45.4555 23.2289Z" fill="#D16018"/>
<path fill-rule="evenodd" clip-rule="evenodd" d="M36.1815 32.7581L36.5984 34.8509L34.7325 35.2215L34.3269 33.1862C32.4573 33.4428 30.5704 33.2183 29.3836 32.619L29.9556 30.1358C31.0267 30.6418 32.4703 30.8777 33.8408 30.7407L33.2185 27.6209C31.047 27.5308 28.5958 27.2997 28.0632 24.6289C27.6704 22.6494 28.768 20.6635 31.6485 19.739L31.2355 17.6664L33.1029 17.2942L33.5085 19.3295C34.9295 19.1626 36.3655 19.2643 37.5224 19.7144L37.0473 22.1976C35.9874 21.846 34.9538 21.7218 33.9984 21.7952L34.6318 24.971C36.7981 25.0425 39.2135 25.2794 39.7371 27.913C40.124 29.8566 39.0414 31.8202 36.1815 32.7581ZM32.6726 24.8755L32.1437 22.2233C31.1998 22.6451 30.9153 23.2643 31.0386 23.8811C31.1678 24.5353 31.7992 24.7789 32.6726 24.8755ZM36.7782 28.7368C36.6475 28.0827 36.0364 27.8369 35.1777 27.7148L35.6916 30.2924C36.5835 29.902 36.8978 29.335 36.7782 28.7368Z" fill="white"/>
</g>
<defs>
<clipPath id="clip0_211_7800">
<rect width="35.4731" height="28.4081" fill="white" transform="translate(10.1035 15.5386) rotate(-25.9791)"/>
</clipPath>
</defs>
</svg>
