<svg width="64" height="64" viewBox="0 0 64 64" fill="none" xmlns="http://www.w3.org/2000/svg">
<rect width="64" height="64" fill="#F8F8FA"/>
<path d="M52.9639 39.467L20.6396 45.1667C18.6425 45.5188 16.7381 44.1853 16.3859 42.1883L12.8279 22.0097C12.4757 20.0126 13.8093 18.1082 15.8063 17.7561L48.1306 12.0564C50.1277 11.7043 52.0321 13.0378 52.3843 15.0348L55.9423 35.2134C56.2945 37.2104 54.961 39.1149 52.9639 39.467Z" fill="#8A22DC"/>
<path d="M44.8008 51.8599H12.6719C10.644 51.8599 9 50.2159 9 48.188V28.2021C9 26.1743 10.644 24.5303 12.6719 24.5303H44.8008C46.8287 24.5303 48.4727 26.1743 48.4727 28.2021V48.188C48.4727 50.2159 46.8287 51.8599 44.8008 51.8599Z" fill="#FA9C45"/>
<path d="M9 30.7769H48.4727V37.0236H9V30.7769Z" fill="white"/>
<path d="M19.9323 45.7979H13.6855C12.9251 45.7979 12.3086 46.4144 12.3086 47.1748C12.3086 47.9353 12.9251 48.5518 13.6855 48.5518H19.9323C20.6928 48.5518 21.3093 47.9353 21.3093 47.1748C21.3093 46.4144 20.6928 45.7979 19.9323 45.7979Z" fill="white"/>
</svg>
