<svg width="64" height="64" viewBox="0 0 64 64" fill="none" xmlns="http://www.w3.org/2000/svg">
<rect width="64" height="64" fill="#F8F8FA"/>
<path d="M45.7144 20.4092L43.6513 21.7845L40.2129 21.0968L38.1498 20.4092L35.399 21.0968L33.3359 20.4092L34.7113 17.6584H37.4621L40.1578 16.3105C42.2368 17.3386 44.1176 18.7264 45.7144 20.4092Z" fill="#BA63FF"/>
<path d="M29.8981 17.6608L29.2105 19.7239L27.1474 20.4116L25.0843 23.85L21.6458 25.9131L16.832 26.6008V28.6639L18.2074 30.0393V32.79L16.1444 31.4146L14.0813 30.0393L12.8848 26.4427C14.9444 21.5346 18.8814 17.6546 23.819 15.6665L25.772 16.9731L29.8981 17.6608Z" fill="#BA63FF"/>
<path d="M31.2715 36.9133L30.5839 40.3518L27.8331 43.1025V45.1656L25.0823 47.2287V50.6671L23.0193 49.9794L21.6439 46.541V39.6641L18.2054 38.9764L16.8301 36.2257V34.1626L18.2054 32.7872L20.2685 30.7241L21.6439 33.4749H26.4577L28.5208 36.9133H31.2715Z" fill="#BA63FF"/>
<path d="M48.6696 24.4202C52.4236 31.1176 51.9959 39.3761 47.5693 45.6491L45.7125 43.7924V41.0416L44.3372 38.2908L42.9618 35.5401V32.7893L40.8987 31.4139L38.148 32.1016L33.3342 30.0385L32.6465 25.2247L34.7096 23.1616H38.8357L40.211 25.2247L44.3372 25.9124L48.4633 24.537L48.6696 24.4202Z" fill="#BA63FF"/>
<path d="M35.3983 21.0989L38.1491 20.4113L40.2122 21.0989L43.6506 21.7866L45.7137 20.4113C46.8656 21.6168 47.8593 22.9639 48.6708 24.4205L48.4645 24.5374L44.3384 25.9127L40.2123 25.225L38.8369 23.162H34.7108L32.6477 25.225L33.3354 30.0388L38.1492 32.1019L40.9 31.4143L42.963 32.7896V35.5404L44.3384 38.2912L45.7137 41.0419V43.7927L47.5705 45.6494C41.2197 54.6485 28.7759 56.7948 19.7775 50.444C12.1352 45.0497 9.26823 35.0693 12.8834 26.4423L14.08 30.0388L16.1431 31.4142L18.2062 32.7895L16.8308 34.165V36.2281L18.2061 38.9788L21.6446 39.6665V46.5434L23.0199 49.9818L25.083 50.6695V47.2311L27.8338 45.168V43.1049L30.5845 40.3541L31.2722 36.9156H28.5214L26.4583 33.4772H21.6446L20.2692 30.7264L18.2061 32.7895V30.0388L16.8308 28.6635V26.6004L21.6446 25.9127L25.083 23.8496L27.1461 20.4112L29.2092 19.7235L29.8969 17.6604L25.7708 16.9727L23.8177 15.6661C29.1061 13.5363 35.0532 13.7715 40.1572 16.3126L37.4614 17.6604H34.7107L33.3353 20.4112L35.3983 21.0989Z" fill="#8A22DC"/>
<path d="M11.6075 39.4929C13.2873 42.6176 13.7347 45.7658 18.1229 44.6588C24.3697 43.0829 29.5419 36.0243 31.459 33.0361L28.5888 31.2963L38.2634 24.8889L39.6367 37.1871L36.3122 35.2166C35.0899 39.0291 29.6776 47.5246 17.8073 51.0065C8.074 53.7057 8.75319 43.1372 11.6075 39.4929Z" fill="white"/>
<path d="M39.6367 37.1871L38.2634 24.8889C34.3001 37.91 25.7271 44.7126 17.9038 47.882C11.6451 50.4175 11.0985 43.3457 11.6075 39.4929C8.75319 43.1372 8.074 53.7057 17.8073 51.0065C29.6776 47.5246 35.0899 39.0291 36.3122 35.2166L39.6367 37.1871Z" fill="#FA9C45"/>
<circle cx="14.0001" cy="19.3439" r="2.963" fill="#D16018"/>
<path d="M14.0013 27.1746C14.0714 27.1746 14.1383 27.1459 14.1867 27.0952C14.5955 26.6656 15.4027 25.7759 16.212 24.6485C17.2311 23.2302 18.4456 21.1493 18.4456 19.2949C18.4456 16.8714 16.4519 14.8994 14.0013 14.8994C11.5505 14.8994 9.55664 16.8714 9.55664 19.2949C9.55664 21.1509 10.7729 23.2326 11.7934 24.6524C12.6022 25.7785 13.4075 26.6661 13.8159 27.0952C13.864 27.1459 13.931 27.1746 14.0013 27.1746ZM11.2874 19.238C11.2874 17.7576 12.5052 16.5537 14.0013 16.5537C15.4975 16.5537 16.7149 17.7576 16.7149 19.238C16.7149 20.7176 15.4975 21.9218 14.0013 21.9218C12.5052 21.9218 11.2874 20.7176 11.2874 19.238Z" fill="#FA9C45"/>
<circle cx="14.0015" cy="19.3438" r="2.22225" fill="white"/>
<circle cx="36.2228" cy="12.4444" r="2.963" fill="#D16018"/>
<path d="M36.224 20.2752C36.294 20.2752 36.361 20.2465 36.4094 20.1958C36.8181 19.7662 37.6253 18.8765 38.4346 17.7491C39.4538 16.3308 40.6682 14.2499 40.6682 12.3954C40.6682 9.972 38.6746 8 36.224 8C33.7732 8 31.7793 9.97195 31.7793 12.3954C31.7793 14.2515 32.9956 16.3332 34.016 17.753C34.8249 18.8791 35.6302 19.7667 36.0385 20.1958C36.0866 20.2465 36.1536 20.2752 36.224 20.2752ZM33.5101 12.3386C33.5101 10.8582 34.7279 9.65424 36.224 9.65424C37.7201 9.65424 38.9376 10.8582 38.9376 12.3386C38.9376 13.8182 37.7201 15.0224 36.224 15.0224C34.7279 15.0223 33.5101 13.8182 33.5101 12.3386Z" fill="#FA9C45"/>
<circle cx="36.2242" cy="12.4444" r="2.22225" fill="white"/>
<circle cx="49.5548" cy="30.2223" r="2.963" fill="#D16018"/>
<path d="M49.556 38.053C49.6261 38.053 49.693 38.0243 49.7414 37.9737C50.1502 37.544 50.9573 36.6543 51.7667 35.527C52.7858 34.1086 54.0003 32.0277 54.0003 30.1733C54.0003 27.7498 52.0066 25.7778 49.556 25.7778C47.1052 25.7778 45.1113 27.7498 45.1113 30.1733C45.1113 32.0293 46.3276 34.111 47.3481 35.5308C48.1569 36.6569 48.9622 37.5445 49.3706 37.9737C49.4187 38.0243 49.4857 38.053 49.556 38.053ZM46.8421 30.1164C46.8421 28.636 48.0599 27.4321 49.556 27.4321C51.0522 27.4321 52.2696 28.636 52.2696 30.1164C52.2696 31.596 51.0522 32.8002 49.556 32.8002C48.0599 32.8002 46.8421 31.596 46.8421 30.1164Z" fill="#FA9C45"/>
<circle cx="49.5562" cy="30.2222" r="2.22225" fill="white"/>
</svg>
